<?xml version="1.0" encoding="utf-8"?>
<!-- Generator: Adobe Illustrator 25.0.0, SVG Export Plug-In . SVG Version: 6.00 Build 0)  -->
<svg version="1.1" id="Capa_1" xmlns="http://www.w3.org/2000/svg" xmlns:xlink="http://www.w3.org/1999/xlink" x="0px" y="0px"
	 viewBox="0 0 157.1 40.6" style="enable-background:new 0 0 157.1 40.6;" xml:space="preserve">
<style type="text/css">
	.st0{display:none;}
	.st1{display:inline;}
	.st2{fill:#314FFA;}
	.st3{fill-rule:evenodd;clip-rule:evenodd;fill:url(#SVGID_1_);}
	.st4{fill-rule:evenodd;clip-rule:evenodd;fill:url(#SVGID_2_);}
	.st5{fill-rule:evenodd;clip-rule:evenodd;fill:url(#SVGID_3_);}
	.st6{fill-rule:evenodd;clip-rule:evenodd;fill:url(#SVGID_4_);}
	.st7{fill:#F9B500;}
	.st8{fill:#05C7D6;}
	.st9{fill:none;stroke:#164988;stroke-width:0.25;stroke-miterlimit:9.9998;}
	.st10{fill:none;stroke:#164988;stroke-width:0.25;stroke-miterlimit:10;}
	.st11{fill:#E63938;}
	.st12{fill:#5D78FF;}
	.st13{fill:#FFFFFF;}
	.st14{fill-rule:evenodd;clip-rule:evenodd;fill:url(#SVGID_5_);}
	.st15{fill-rule:evenodd;clip-rule:evenodd;fill:url(#SVGID_6_);}
	.st16{fill-rule:evenodd;clip-rule:evenodd;fill:url(#SVGID_7_);}
	.st17{fill-rule:evenodd;clip-rule:evenodd;fill:url(#SVGID_8_);}
	.st18{fill:none;stroke:#164988;stroke-width:0.5;stroke-miterlimit:9.9999;}
	.st19{fill:none;stroke:#164988;stroke-width:0.5;stroke-miterlimit:10;}
</style>
<g id="Capa_1_2_" class="st0">
	<g id="Capa_1_1_" class="st1">
		
			<image style="overflow:visible;enable-background:new    ;" width="110" height="32" xlink:href="../../../Tailwind/assets/images/5496B3FF.png"  transform="matrix(1 0 0 1 0 4.2857)">
		</image>
	</g>
	<g id="Capa_2_1_" class="st1">
		<g>
			<g>
				<path class="st2" d="M43.2,14.5v12.1h-2.6v-5h-5.1v5H33V14.5h2.6v4.8h5.1v-4.8C40.7,14.5,43.2,14.5,43.2,14.5z"/>
				<path class="st2" d="M45.2,20.6c0-3.7,2.6-6.3,6-6.3c1.9,0,3.5,0.8,4.6,2.1l-1.7,1.7c-0.8-0.9-1.7-1.4-2.8-1.4
					c-2.1,0-3.6,1.6-3.6,3.9s1.5,3.9,3.6,3.9c1.1,0,2-0.5,2.8-1.4l1.7,1.7c-1,1.4-2.7,2.2-4.6,2.2C47.8,26.9,45.2,24.3,45.2,20.6z"
					/>
				<path class="st2" d="M56.6,25.5l0.9-2.1c0.9,0.8,2.3,1.3,3.7,1.3c1.5,0,2.2-0.5,2.2-1.3c0-2.3-6.5-0.7-6.5-5.2
					c0-2.1,1.5-3.8,4.7-3.8c1.4,0,2.8,0.4,3.9,1.1l-0.8,2.1c-1-0.6-2.1-0.9-3.1-0.9c-1.5,0-2.1,0.6-2.1,1.4c0,2.2,6.5,0.7,6.5,5.1
					c0,2-1.5,3.8-4.7,3.8C59.4,26.9,57.6,26.3,56.6,25.5z"/>
				<path class="st2" d="M81.8,18.9c0,2.7-1.9,4.4-4.8,4.4h-2.2v3.4h-2.6V14.5H77C79.9,14.5,81.8,16.2,81.8,18.9z M79.2,18.9
					c0-1.3-0.8-2.1-2.4-2.1h-2.1V21h2.1C78.4,21,79.2,20.2,79.2,18.9z"/>
				<path class="st2" d="M91.8,22.8h-6.5c0.2,1.2,1.2,1.9,2.4,1.9c0.9,0,1.6-0.3,2.2-0.9l1.3,1.6c-0.8,1-2,1.5-3.5,1.5
					c-3,0-4.9-2-4.9-4.8s2-4.8,4.6-4.8c2.5,0,4.5,1.8,4.5,4.8C91.8,22.2,91.8,22.5,91.8,22.8z M85.3,21.2h4.2
					c-0.2-1.2-1-1.9-2.1-1.9C86.2,19.2,85.4,20,85.3,21.2z"/>
				<path class="st2" d="M98.8,17.2v2.5c-0.2,0-0.4,0-0.6,0c-1.4,0-2.3,0.8-2.3,2.6v4.4h-2.5v-9.4h2.4v1.2
					C96.5,17.7,97.5,17.2,98.8,17.2z"/>
				<path class="st2" d="M109,17.3v9.3h-2.4v-1.1c-0.7,0.8-1.6,1.3-2.7,1.3c-2.2,0-3.7-1.3-3.7-4.2v-5.3h2.5v4.9
					c0,1.6,0.6,2.3,1.7,2.3c1.2,0,2-0.8,2-2.5v-4.7H109L109,17.3z M105.1,16.1h-1.9l2.2-2.5h2.7L105.1,16.1z"/>
			</g>
		</g>
		<g>
			<g>
				
					<linearGradient id="SVGID_1_" gradientUnits="userSpaceOnUse" x1="20.5166" y1="33.5877" x2="21.8307" y2="35.0261" gradientTransform="matrix(1 0 0 1 0 -14)">
					<stop  offset="0" style="stop-color:#BEE3F7"/>
					<stop  offset="1" style="stop-color:#FFFFFF"/>
				</linearGradient>
				<polygon class="st3" points="15.4,20.3 21.2,14.5 27,20.4 21.2,26.2 				"/>
				
					<linearGradient id="SVGID_2_" gradientUnits="userSpaceOnUse" x1="7.2093" y1="33.5297" x2="8.5235" y2="34.9681" gradientTransform="matrix(1 0 0 1 0 -14)">
					<stop  offset="0" style="stop-color:#BEE3F7"/>
					<stop  offset="1" style="stop-color:#FFFFFF"/>
				</linearGradient>
				<polygon class="st4" points="2.1,20.3 7.9,14.5 13.7,20.3 7.9,26.1 				"/>
				
					<linearGradient id="SVGID_3_" gradientUnits="userSpaceOnUse" x1="13.8731" y1="40.1949" x2="15.1873" y2="41.6333" gradientTransform="matrix(1 0 0 1 0 -14)">
					<stop  offset="0" style="stop-color:#BEE3F7"/>
					<stop  offset="1" style="stop-color:#FFFFFF"/>
				</linearGradient>
				<polygon class="st5" points="8.7,26.9 14.6,21.1 20.4,27 14.5,32.8 				"/>
				
					<linearGradient id="SVGID_4_" gradientUnits="userSpaceOnUse" x1="13.8581" y1="26.8783" x2="15.1722" y2="28.3168" gradientTransform="matrix(1 0 0 1 0 -14)">
					<stop  offset="0" style="stop-color:#BEE3F7"/>
					<stop  offset="1" style="stop-color:#FFFFFF"/>
				</linearGradient>
				<polygon class="st6" points="8.7,13.6 14.6,7.8 20.4,13.7 14.5,19.4 				"/>
			</g>
			<g>
				<g>
					<path class="st7" d="M21.2,21.9v1.9c0,0-0.2-0.9-0.3-1.6c-0.7,0.9-1.5,1.1-1.5,1.1c0.5-0.7,0.6-1.2,0.6-1.5
						c-1.1,0.5-2,0.3-2,0.3c0.8-0.4,1.1-0.8,1.3-1.1c-1.2-0.1-2-0.7-2-0.7c0.9,0,1.5-0.1,1.8-0.3c-1-0.6-1.3-1.5-1.3-1.5
						c0.8,0.5,1.4,0.6,1.8,0.6c-0.5-1-0.4-1.9-0.4-1.9c0.4,0.8,0.9,1.1,1.2,1.3c0.1-1.1,0.7-1.7,0.7-1.7v1.9c-0.9,0-1.6,0.7-1.6,1.5
						C19.6,21.2,20.3,21.9,21.2,21.9L21.2,21.9z"/>
					<path class="st7" d="M21.2,19c-0.8,0-1.5,0.6-1.5,1.3s0.6,1.3,1.5,1.3V19z"/>
				</g>
				<path class="st8" d="M21.5,20v-0.2v-2.9l0,0c0.1,0,0.1,0.1,0.1,0.1v0.7l0.3-0.3H22v0.1l-0.4,0.4v0.7l0.7-0.7h0.1V18l-0.9,0.9
					v0.8c0.1,0,0.2,0.1,0.3,0.2l0.7-0.4l0.5-1.2c0-0.1,0.1-0.1,0.1-0.1c0.1,0,0.1,0.1,0.1,0.1l-0.3,1.1l0.6-0.3l0.2-0.6
					c0-0.1,0.1-0.1,0.1-0.1c0.1,0,0.1,0.1,0.1,0.1l-0.1,0.4l0.6-0.4h0.1c0,0.1,0,0.1,0,0.1l-0.6,0.3l0.4,0.1c0.1,0,0.1,0.1,0.1,0.1
					c0,0.1-0.1,0.1-0.1,0.1l0,0L23.7,19L23,19.6l1,0.3c0.1,0,0.1,0.1,0.1,0.1c0,0.1-0.1,0.1-0.1,0.1l0,0l-1.2-0.3L22,20.2
					c0,0.1,0,0.1,0,0.2c0,0,0,0.1,0,0.2l0.7,0.4l1.3-0.3c0.1,0,0.1,0,0.1,0.1s0,0.1-0.1,0.1l-1,0.2l0.6,0.3l0.6-0.2
					c0.1,0,0.1,0,0.1,0.1s0,0.1-0.1,0.1l-0.4,0.1l0.6,0.4c0,0,0.1,0.1,0,0.1h-0.1l0,0l-0.6-0.3l0.1,0.4c0,0.1,0,0.1-0.1,0.1l0,0
					c0,0-0.1,0-0.1-0.1l-0.2-0.6l-0.6-0.3l0.3,1c0,0.1,0,0.1-0.1,0.1l0,0c0,0-0.1,0-0.1-0.1L22.6,21l-0.7-0.4
					c-0.1,0.1-0.1,0.1-0.2,0.2v0.8l0.9,0.9v0.1c0,0,0,0-0.1,0s-0.1,0-0.1,0l-0.7-0.7v0.7l0.4,0.4v0.1H22l-0.3-0.3v0.7
					c0,0.1,0,0.1-0.1,0.1l0,0v-2.8v-0.2l0,0c0.2,0,0.3-0.2,0.3-0.4C21.8,20.2,21.6,20,21.5,20L21.5,20L21.5,20z M22,19.6L22,19.6
					c0.1,0,0.1,0,0.1,0l0.3-0.2c0,0,0,0,0-0.1l0.1-0.5c0-0.1,0-0.1,0-0.1h-0.1L22,19.1v0.1V19.6C21.9,19.5,21.9,19.6,22,19.6
					L22,19.6z M23.3,20.2L22.8,20h-0.1l-0.3,0.1l-0.1,0.1v0.1l0.3,0.2l0,0l0,0l0.5-0.1c0,0,0.1,0,0.1-0.1
					C23.4,20.3,23.4,20.3,23.3,20.2L23.3,20.2z M22.4,21.3L22.4,21.3l-0.3-0.2H22v0.1v0.3v0.1l0.4,0.4c0,0,0,0,0.1,0l0,0
					c0,0,0.1-0.1,0-0.1L22.4,21.3z"/>
			</g>
			<g>
				
					<rect x="10.4" y="9.5" transform="matrix(0.7061 -0.7081 0.7081 0.7061 -5.3932 14.2653)" class="st9" width="8.2" height="8.2"/>
				
					<rect x="3.8" y="16.2" transform="matrix(0.7091 -0.7051 0.7051 0.7091 -11.9926 11.4791)" class="st9" width="8.2" height="8.2"/>
				
					<rect x="10.4" y="22.8" transform="matrix(0.7095 -0.7047 0.7047 0.7095 -14.772 18.021)" class="st10" width="8.2" height="8.2"/>
				
					<rect x="17.1" y="16.2" transform="matrix(0.7091 -0.7051 0.7051 0.7091 -8.1502 20.8502)" class="st9" width="8.2" height="8.2"/>
			</g>
			<path class="st11" d="M16.4,24.2c-0.1,0.2-0.3,0.4-0.3,0.6c-0.2,0.4-0.3,0.7-0.3,0.8l0,0c0,0,0,0,0-0.1c-0.1-0.3-0.1-0.4-0.2-0.5
				c-0.1-0.1-0.1-0.2-0.2-0.3c-0.3-0.2-0.5-0.3-0.9-0.3c-0.3,0-0.5,0.1-0.7,0.2s-0.3,0.4-0.3,0.6c0,0.5,0.4,0.8,1.1,0.9l0.7,0.2
				c1,0.2,1.5,0.8,1.5,1.6c0,0.5-0.2,0.8-0.5,1.1c-0.3,0.3-0.8,0.5-1.3,0.5c-0.3,0-0.7,0-1.1-0.1l-0.6-0.1c-0.2,0-0.4-0.1-0.5-0.1
				c-0.2,0-0.3,0-0.5,0.2v-0.1c0.3-0.5,0.6-1,0.7-1.5h0.1c0.1,0.4,0.2,0.8,0.5,1s0.7,0.4,1.1,0.4c0.4,0,0.7-0.1,0.9-0.3
				s0.3-0.4,0.3-0.7c0-0.3-0.1-0.6-0.4-0.8c-0.2-0.1-0.7-0.3-1.3-0.4c-0.5-0.1-0.9-0.3-1.1-0.5c-0.2-0.2-0.4-0.6-0.4-1
				s0.2-0.8,0.5-1.1c0.3-0.3,0.7-0.4,1.2-0.4c0.3,0,0.7,0.1,1.1,0.2c0.2,0,0.4,0.1,0.4,0.1C16,24.3,16.2,24.3,16.4,24.2L16.4,24.2z
				 M16.6,24.4L16.6,24.4c-0.2,0.3-0.3,0.4-0.3,0.6c-0.2,0.4-0.3,0.6-0.3,0.7l0,0h-0.1l0,0c0.1-0.2,0.2-0.4,0.4-0.7l0.3-0.5l0,0
				V24.4z M15.4,25.2c-0.3-0.3-0.6-0.5-1-0.5c-0.2,0-0.4,0.1-0.5,0.2s-0.2,0.3-0.2,0.5s0.1,0.4,0.4,0.6l0,0l0,0
				c-0.4-0.2-0.6-0.4-0.6-0.7c0-0.2,0.1-0.4,0.2-0.5c0.2-0.1,0.4-0.2,0.6-0.2c0.2,0,0.4,0,0.6,0.1S15.4,25,15.4,25.2L15.4,25.2z
				 M16.4,26.9c0.4,0.3,0.6,0.7,0.6,1.2s-0.2,1-0.6,1.3s-0.9,0.5-1.5,0.5c-0.3,0-0.6,0-0.8-0.1l-0.7-0.2c-0.1,0-0.3-0.1-0.5-0.1
				s-0.3,0-0.4,0.1l-0.1-0.1c0.1-0.1,0.3-0.1,0.4-0.1c0.2,0,0.4,0,0.6,0.1l0.6,0.1c0.3,0.1,0.5,0.1,0.8,0.1c0.6,0,1-0.2,1.4-0.5
				c0.4-0.4,0.6-0.8,0.6-1.3C16.8,27.6,16.7,27.2,16.4,26.9L16.4,26.9L16.4,26.9z M13.4,28.1c0.1,0.5,0.4,0.9,0.8,1l0,0
				c-0.5-0.1-0.8-0.5-0.9-1.1L13.4,28.1z M12.9,26.7l0.1,0.1c0.1,0.2,0.4,0.3,0.8,0.4l0.7,0.2c0.4,0.1,0.8,0.2,0.9,0.3
				c0.1,0.1,0.3,0.2,0.3,0.4l0,0c-0.1-0.1-0.3-0.3-0.4-0.3c-0.1-0.1-0.4-0.1-0.8-0.2c-0.6-0.1-1-0.3-1.2-0.4
				C13.1,27,12.9,26.9,12.9,26.7L12.9,26.7z"/>
			<path class="st11" d="M16.6,11.1L16.6,11.1c-0.3,0.5-0.5,0.9-0.7,1.3v0.1h-0.1c-0.1-0.4-0.2-0.7-0.4-1c-0.2-0.2-0.5-0.3-0.9-0.3
				s-0.7,0.2-0.9,0.4c-0.3,0.4-0.4,1-0.4,1.9c0,0.8,0.1,1.4,0.4,1.8c0.3,0.4,0.7,0.6,1.2,0.6c0.4,0,0.7-0.1,0.9-0.4s0.4-0.6,0.4-1.1
				c0-0.1,0.1-0.2,0.1-0.2c0.1,0,0.2,0.1,0.2,0.3c0,0.3-0.1,0.5-0.2,0.8c-0.2,0.7-0.8,1-1.6,1c-0.7,0-1.3-0.2-1.8-0.7
				s-0.6-1.1-0.6-2c0-0.8,0.2-1.4,0.7-1.9s1-0.8,1.7-0.8c0.3,0,0.7,0.1,1.1,0.2c0.2,0.1,0.4,0.1,0.5,0.1
				C16.3,11.2,16.4,11.2,16.6,11.1L16.6,11.1z M15.4,11.8c-0.3-0.2-0.5-0.3-0.7-0.3c-0.7,0-1.1,0.7-1.1,2c0,0.6,0.1,1.1,0.3,1.5
				s0.4,0.7,0.7,0.8l0,0c-0.3-0.1-0.6-0.3-0.8-0.7s-0.3-0.9-0.3-1.6c0-1.4,0.4-2.1,1.2-2.1C14.9,11.4,15.2,11.5,15.4,11.8L15.4,11.8
				L15.4,11.8z M16.8,14.6c0,0.7-0.2,1.2-0.6,1.5c-0.3,0.3-0.8,0.5-1.4,0.5c-0.5,0-0.9-0.1-1.3-0.4l0,0c0.4,0.2,0.8,0.3,1.3,0.3
				c0.6,0,1-0.2,1.4-0.5c0.2-0.2,0.3-0.4,0.4-0.6C16.7,15.2,16.7,14.9,16.8,14.6v-0.1V14.6z M16.9,11.3L16.9,11.3
				c-0.4,0.6-0.6,1-0.8,1.4H16v-0.1c0.1-0.3,0.3-0.5,0.4-0.7l0.4-0.6H16.9L16.9,11.3z"/>
			<path class="st11" d="M5.4,17.7h1.9l-0.6,0.5v1.6c0.1,0,0.1,0,0.2,0v-1.5l0.4-0.4L7.4,18l-0.3,0.3v1.5h0.1c0.2,0,0.4,0,0.6,0
				c0.3,0,0.5,0,0.7,0v-1.7L8,17.7h1.9l-0.6,0.5v3.9l0.5,0.4H8l0.6-0.4v-1.6c-0.2,0-0.5,0.1-0.7,0.1s-0.5,0-0.7,0H7.1v1.6l0.7,0.7
				H5.7l-0.1-0.1h2L7,22.1v-1.7h0.1c0.4,0,0.6,0,0.8,0c0.3,0,0.5,0,0.7-0.1v-0.1c-0.3,0.1-0.6,0.1-0.9,0.1c-0.2,0-0.3,0-0.4,0H6.9
				H6.8v1.8l0.5,0.4H5.4L6,22v-1.6c-0.2,0-0.4,0.1-0.5,0.2H5.4c0.1-0.2,0.3-0.3,0.6-0.3v-0.1c-0.3,0-0.5,0.1-0.7,0.3H5.2
				c0.2-0.4,0.4-0.6,0.8-0.6v-1.7L5.4,17.7z M10.1,17.9l-0.4,0.4v3.8l0.7,0.7H8.3l-0.1-0.1h2l-0.5-0.6v-3.8L10.1,17.9L10.1,17.9z"/>
		</g>
	</g>
</g>
<g id="Capa_2_2_">
	<g id="Capa_3">
		<path class="st12" d="M55.4,36.3H5c-2.7,0-5-2.2-5-5v-22c0-2.7,2.2-5,5-5h50.5L55.4,36.3L55.4,36.3z"/>
		<g>
			<path class="st13" d="M19.1,12.6V28h-2.9v-6.6h-8V28H5.4V12.6h2.9V19h8v-6.4H19.1z"/>
			<path class="st13" d="M22.1,20.3c0-4.6,3.5-7.9,8.3-7.9c2.5,0,4.7,0.9,6.1,2.6l-1.8,1.7c-1.1-1.2-2.5-1.8-4.1-1.8
				c-3.2,0-5.5,2.2-5.5,5.4s2.3,5.4,5.5,5.4c1.6,0,3-0.6,4.1-1.8l1.8,1.8c-1.4,1.7-3.6,2.6-6.1,2.6C25.6,28.2,22.1,24.9,22.1,20.3z"
				/>
			<path class="st13" d="M37.8,26.4l1-2.2c1.2,1,3.2,1.7,5.1,1.7c2.4,0,3.4-0.9,3.4-2c0-3.3-9.2-1.1-9.2-6.9c0-2.5,2-4.6,6.2-4.6
				c1.8,0,3.8,0.5,5.1,1.4L48.5,16c-1.4-0.8-2.9-1.2-4.2-1.2c-2.4,0-3.3,0.9-3.3,2.1c0,3.3,9.1,1.1,9.1,6.8c0,2.5-2,4.6-6.2,4.6
				C41.5,28.2,39.1,27.5,37.8,26.4z"/>
		</g>
		<g>
			<path class="st12" d="M71.7,18.2c0,3.3-2.4,5.3-6.3,5.3h-4.1v4.8h-1.6V12.9h5.8C69.3,12.9,71.7,14.9,71.7,18.2z M70.1,18.2
				c0-2.5-1.6-3.9-4.7-3.9h-4.1V22h4.1C68.4,22.1,70.1,20.6,70.1,18.2z"/>
			<path class="st12" d="M84.9,23h-9.7c0.2,2.4,2,4,4.6,4c1.4,0,2.7-0.5,3.5-1.5l0.9,1c-1,1.2-2.6,1.9-4.5,1.9
				c-3.6,0-6.1-2.5-6.1-5.9s2.4-5.9,5.7-5.9c3.3,0,5.6,2.4,5.6,5.9C84.9,22.7,84.9,22.9,84.9,23z M75.2,21.9h8.2
				c-0.2-2.3-1.8-3.9-4.1-3.9C77.1,18,75.4,19.6,75.2,21.9z"/>
			<path class="st12" d="M93.9,16.7v1.5c-0.1,0-0.3,0-0.4,0c-2.4,0-3.9,1.5-3.9,4.3v5.8H88V16.8h1.5v2.3
				C90.3,17.5,91.8,16.7,93.9,16.7z"/>
			<path class="st12" d="M107.4,16.8v11.5h-1.5v-2.1c-0.8,1.4-2.3,2.2-4.2,2.2c-2.9,0-4.9-1.7-4.9-5v-6.7h1.6v6.6
				c0,2.5,1.3,3.7,3.5,3.7c2.4,0,3.9-1.6,3.9-4.2v-6.1h1.6V16.8z M102.2,15h-1.5l3-2.7h2.1L102.2,15z"/>
		</g>
	</g>
</g>
<g>
	<g>
		
			<linearGradient id="SVGID_5_" gradientUnits="userSpaceOnUse" x1="146.9249" y1="23.2814" x2="148.8645" y2="21.1583" gradientTransform="matrix(1 0 0 -1 0 42.5714)">
			<stop  offset="0" style="stop-color:#BEE3F7"/>
			<stop  offset="1" style="stop-color:#FFFFFF"/>
		</linearGradient>
		<polygon class="st14" points="139.4,20.4 147.9,11.8 156.5,20.4 147.9,29 		"/>
		
			<linearGradient id="SVGID_6_" gradientUnits="userSpaceOnUse" x1="127.3443" y1="23.3774" x2="129.284" y2="21.2543" gradientTransform="matrix(1 0 0 -1 0 42.5714)">
			<stop  offset="0" style="stop-color:#BEE3F7"/>
			<stop  offset="1" style="stop-color:#FFFFFF"/>
		</linearGradient>
		<polygon class="st15" points="119.8,20.3 128.4,11.7 136.9,20.3 128.3,28.9 		"/>
		
			<linearGradient id="SVGID_7_" gradientUnits="userSpaceOnUse" x1="137.1399" y1="13.5258" x2="139.0796" y2="11.4028" gradientTransform="matrix(1 0 0 -1 0 42.5714)">
			<stop  offset="0" style="stop-color:#BEE3F7"/>
			<stop  offset="1" style="stop-color:#FFFFFF"/>
		</linearGradient>
		<polygon class="st16" points="129.6,30.1 138.2,21.6 146.7,30.2 138.1,38.7 		"/>
		
			<linearGradient id="SVGID_8_" gradientUnits="userSpaceOnUse" x1="137.118" y1="33.1807" x2="139.0576" y2="31.0576" gradientTransform="matrix(1 0 0 -1 0 42.5714)">
			<stop  offset="0" style="stop-color:#BEE3F7"/>
			<stop  offset="1" style="stop-color:#FFFFFF"/>
		</linearGradient>
		<polygon class="st17" points="129.6,10.5 138.1,1.9 146.7,10.5 138.1,19.1 		"/>
	</g>
	<g>
		<g>
			<path class="st7" d="M147.9,22.7v2.8c0,0-0.3-1.3-0.5-2.3c-1,1.3-2.3,1.7-2.3,1.7c0.7-1,0.8-1.7,0.8-2.3
				c-1.6,0.7-2.9,0.4-2.9,0.4c1.2-0.6,1.6-1.2,1.9-1.6c-1.7-0.1-2.9-1-2.9-1c1.3,0.1,2.2-0.2,2.7-0.5c-1.4-0.9-2-2.2-2-2.2
				c1.1,0.7,2,0.9,2.6,0.9c-0.7-1.5-0.5-2.8-0.5-2.8c0.6,1.1,1.3,1.7,1.8,2c0.1-1.6,1.1-2.5,1.1-2.5v2.9c-1.3,0-2.4,1-2.4,2.3
				C145.5,21.6,146.6,22.6,147.9,22.7L147.9,22.7z"/>
			<path class="st7" d="M147.9,18.4c-1.2,0-2.2,0.9-2.2,2c0,1.1,1,2,2.2,2V18.4z"/>
		</g>
		<path class="st8" d="M148.4,19.8v-0.3v-4.2c0,0,0,0,0.1,0c0.1,0,0.2,0.1,0.2,0.2v1L149,16c0.1-0.1,0.2-0.1,0.2,0
			c0.1,0.1,0.1,0.2,0,0.2l-0.6,0.6v1l1.1-1.1c0.1-0.1,0.2-0.1,0.2,0c0.1,0.1,0.1,0.2,0,0.2l-1.3,1.3v1.2c0.1,0.1,0.3,0.2,0.4,0.3
			l1.1-0.6l0.5-1.9c0-0.1,0.1-0.1,0.2-0.1c0.1,0,0.1,0.1,0.1,0.2l-0.4,1.6l0.9-0.5l0.2-0.9c0-0.1,0.1-0.1,0.2-0.1
			c0.1,0,0.1,0.1,0.1,0.2l-0.2,0.6l0.9-0.5c0.1,0,0.2,0,0.2,0.1c0,0.1,0,0.2-0.1,0.2l-0.9,0.5l0.6,0.2c0.1,0,0.1,0.1,0.1,0.2
			c0,0.1-0.1,0.1-0.2,0.1c0,0,0,0,0,0l-0.9-0.2l-0.9,0.5l1.5,0.4c0.1,0,0.1,0.1,0.1,0.2c0,0.1-0.1,0.1-0.2,0.1c0,0,0,0,0,0l-1.8-0.5
			l-1.1,0.6c0,0.1,0,0.1,0,0.2c0,0.1,0,0.2,0,0.2l1.1,0.6l1.9-0.5c0.1,0,0.2,0,0.2,0.1c0,0.1,0,0.2-0.1,0.2l-1.6,0.4l0.9,0.5
			l0.9-0.2c0.1,0,0.2,0,0.2,0.1c0,0.1,0,0.2-0.1,0.2l-0.6,0.2l0.9,0.6c0.1,0,0.1,0.1,0.1,0.2c0,0-0.1,0.1-0.1,0.1c0,0-0.1,0-0.1,0
			l-0.9-0.5l0.2,0.6c0,0.1,0,0.2-0.1,0.2c0,0,0,0,0,0c-0.1,0-0.1,0-0.2-0.1l-0.2-0.9l-0.9-0.5l0.4,1.5c0,0.1,0,0.2-0.1,0.2
			c0,0,0,0,0,0c-0.1,0-0.1,0-0.2-0.1l-0.5-1.8l-1.1-0.6c-0.1,0.1-0.2,0.2-0.3,0.3v1.2l1.3,1.3c0.1,0.1,0.1,0.2,0,0.2
			c0,0-0.1,0-0.1,0s-0.1,0-0.1,0l-1.1-1.1v1l0.6,0.6c0.1,0.1,0.1,0.2,0,0.2c-0.1,0.1-0.2,0.1-0.2,0l-0.4-0.4v1
			c0,0.1-0.1,0.2-0.2,0.2c0,0,0,0-0.1,0v-4.2v-0.3v0c0.2,0,0.4-0.3,0.4-0.5C148.8,20.1,148.6,19.9,148.4,19.8L148.4,19.8L148.4,19.8
			z M149.1,19.2C149.1,19.3,149.1,19.3,149.1,19.2c0.1,0,0.1,0,0.2,0l0.4-0.2c0,0,0.1-0.1,0.1-0.1l0.2-0.8c0-0.1,0-0.1-0.1-0.2
			c-0.1,0-0.1,0-0.2,0l-0.6,0.6c0,0,0,0.1,0,0.1l0,0.4C149,19.2,149,19.2,149.1,19.2L149.1,19.2z M151.1,20.2l-0.8-0.2
			c0,0-0.1,0-0.1,0l-0.4,0.2c0,0-0.1,0.1-0.1,0.1c0,0.1,0,0.1,0.1,0.1l0.4,0.2c0,0,0,0,0.1,0c0,0,0,0,0,0l0.8-0.2
			c0.1,0,0.1-0.1,0.1-0.2C151.2,20.3,151.1,20.3,151.1,20.2L151.1,20.2z M149.7,21.8C149.6,21.8,149.6,21.7,149.7,21.8l-0.5-0.3
			c0,0-0.1,0-0.2,0c0,0-0.1,0.1-0.1,0.1l0,0.5c0,0,0,0.1,0,0.1l0.6,0.6c0,0,0.1,0,0.1,0c0,0,0.1,0,0.1,0c0.1,0,0.1-0.1,0.1-0.2
			L149.7,21.8z"/>
	</g>
	<g>
		<polygon class="st18" points="129.6,10.5 138.1,1.9 146.7,10.5 138.2,19.1 		"/>
		<polygon class="st18" points="119.8,20.3 128.4,11.7 136.9,20.3 128.3,28.9 		"/>
		<polygon class="st19" points="129.6,30.1 138.1,21.6 146.7,30.2 138.1,38.7 		"/>
		<polygon class="st18" points="139.4,20.3 148,11.8 156.5,20.4 147.9,28.9 		"/>
	</g>
	<path class="st11" d="M140.8,26.1c-0.2,0.3-0.4,0.6-0.5,0.9c-0.3,0.6-0.4,1-0.5,1.1l0,0c0,0,0-0.1,0-0.1c-0.1-0.4-0.2-0.6-0.3-0.8
		c-0.1-0.1-0.2-0.3-0.3-0.4c-0.4-0.3-0.8-0.5-1.3-0.5c-0.4,0-0.8,0.1-1.1,0.4s-0.4,0.5-0.4,0.9c0,0.7,0.5,1.1,1.5,1.4l1,0.3
		c1.5,0.4,2.2,1.1,2.2,2.3c0,0.7-0.3,1.2-0.8,1.7c-0.5,0.4-1.1,0.7-1.9,0.7c-0.5,0-1-0.1-1.5-0.2l-0.7-0.2c-0.3-0.1-0.5-0.1-0.7-0.1
		c-0.3,0-0.5,0.1-0.8,0.2l0-0.1c0.5-0.8,0.9-1.5,1.1-2.2l0.1,0c0.1,0.6,0.3,1.1,0.8,1.5s1,0.5,1.7,0.5c0.5,0,1-0.1,1.3-0.4
		s0.5-0.6,0.5-1c0-0.5-0.2-0.9-0.7-1.2c-0.3-0.2-1-0.4-2-0.6c-0.8-0.1-1.3-0.4-1.7-0.7c-0.3-0.3-0.5-0.8-0.5-1.5
		c0-0.6,0.2-1.2,0.7-1.6c0.5-0.4,1.1-0.6,1.8-0.6c0.5,0,1,0.1,1.7,0.3c0.3,0.1,0.5,0.1,0.7,0.1C140.3,26.3,140.5,26.2,140.8,26.1
		L140.8,26.1z M141.2,26.4L141.2,26.4c-0.2,0.4-0.4,0.6-0.5,0.9c-0.3,0.6-0.4,0.9-0.5,1l0,0l-0.1-0.1l0-0.1c0.1-0.3,0.3-0.6,0.5-1
		l0.4-0.8l0,0L141.2,26.4z M139.4,27.6c-0.4-0.5-0.9-0.7-1.4-0.7c-0.3,0-0.6,0.1-0.8,0.3c-0.2,0.2-0.3,0.4-0.3,0.7
		c0,0.3,0.2,0.6,0.6,0.9l0,0l0,0c-0.5-0.2-0.8-0.6-0.8-1c0-0.3,0.1-0.6,0.3-0.8c0.2-0.2,0.5-0.3,0.9-0.3c0.3,0,0.7,0.1,0.9,0.2
		C139.1,27.1,139.3,27.3,139.4,27.6L139.4,27.6z M140.8,30c0.6,0.4,0.8,1,0.8,1.7c0,0.8-0.3,1.4-0.9,2c-0.6,0.5-1.3,0.8-2.2,0.8
		c-0.4,0-0.8,0-1.2-0.1l-1-0.2c-0.2-0.1-0.5-0.1-0.7-0.1c-0.2,0-0.4,0-0.6,0.1L135,34c0.2-0.1,0.4-0.2,0.6-0.2c0.2,0,0.5,0,0.8,0.1
		l0.9,0.2c0.4,0.1,0.8,0.1,1.2,0.1c0.8,0,1.5-0.3,2.1-0.8s0.9-1.1,0.9-1.9C141.5,31,141.3,30.5,140.8,30L140.8,30L140.8,30z
		 M136.5,31.8c0.1,0.7,0.6,1.2,1.2,1.5v0c-0.8-0.2-1.2-0.7-1.4-1.6L136.5,31.8z M135.7,29.8l0.2,0.1c0.1,0.2,0.5,0.4,1.2,0.6l1,0.2
		c0.7,0.2,1.1,0.3,1.3,0.4c0.2,0.1,0.4,0.3,0.5,0.5l0,0c-0.2-0.2-0.4-0.4-0.6-0.5c-0.2-0.1-0.6-0.2-1.2-0.4
		c-0.9-0.2-1.5-0.4-1.8-0.5C136,30.2,135.8,30,135.7,29.8L135.7,29.8z"/>
	<path class="st11" d="M141.2,6.8l-0.1,0.1c-0.4,0.6-0.7,1.2-1,1.8l-0.1,0.1l-0.1,0c-0.1-0.6-0.3-1.1-0.7-1.4
		c-0.3-0.3-0.8-0.5-1.3-0.5c-0.5,0-1,0.2-1.3,0.7c-0.4,0.5-0.7,1.5-0.7,2.8c0,1.1,0.2,2,0.6,2.6c0.4,0.6,1,0.9,1.7,0.9
		c0.6,0,1-0.2,1.4-0.6c0.3-0.4,0.6-0.9,0.6-1.6c0-0.2,0.1-0.3,0.2-0.3c0.2,0,0.2,0.1,0.2,0.4c0,0.4-0.1,0.8-0.3,1.2
		c-0.4,0.9-1.2,1.3-2.4,1.3c-1.1,0-1.9-0.4-2.6-1.1c-0.6-0.7-1-1.7-1-2.9c0-1.1,0.3-2.1,1-2.8c0.7-0.8,1.5-1.1,2.5-1.1
		c0.5,0,1,0.1,1.6,0.3c0.3,0.1,0.6,0.2,0.8,0.2c0.2,0,0.4-0.1,0.6-0.2L141.2,6.8z M139.4,7.8c-0.4-0.3-0.7-0.4-1.1-0.4
		c-1.1,0-1.6,1-1.6,2.9c0,0.9,0.1,1.6,0.4,2.2c0.3,0.6,0.6,1,1,1.1v0.1c-0.5-0.1-0.9-0.5-1.2-1.1c-0.3-0.6-0.4-1.4-0.4-2.4
		c0-2,0.6-3,1.8-3C138.7,7.2,139,7.4,139.4,7.8L139.4,7.8L139.4,7.8z M141.4,11.8c-0.1,1-0.4,1.7-0.9,2.2c-0.5,0.5-1.2,0.8-2.1,0.8
		c-0.7,0-1.3-0.2-1.9-0.6v0c0.5,0.3,1.2,0.5,1.9,0.5c0.8,0,1.5-0.3,2-0.7c0.3-0.2,0.4-0.5,0.6-0.8c0.1-0.3,0.2-0.7,0.2-1.2l0-0.1
		L141.4,11.8z M141.6,7.1l-0.1,0.1c-0.5,0.7-0.8,1.4-1.1,2l-0.2-0.1l0.1-0.1c0.2-0.4,0.4-0.8,0.6-1l0.5-0.8l0.1-0.1L141.6,7.1z"/>
	<path class="st11" d="M124.7,16.5h2.8l-0.8,0.7v2.4c0.1,0,0.2,0,0.3,0v-2.3l0.7-0.6l0.1,0.1l-0.6,0.6v2.3l0.2,0c0.3,0,0.6,0,0.9,0
		c0.4,0,0.8,0,1.1-0.1v-2.5l-0.7-0.6h2.8l-0.8,0.7v5.7l0.7,0.6h-2.8l0.8-0.6v-2.3c-0.3,0.1-0.7,0.1-1,0.1c-0.3,0-0.7,0-1-0.1l-0.1,0
		v2.3l1,1h-3.1l-0.2-0.1h2.9L127,23v-2.5l0.2,0c0.5,0,0.9,0.1,1.1,0.1c0.4,0,0.7,0,1-0.1v-0.2c-0.4,0-0.8,0.1-1.3,0.1
		c-0.3,0-0.5,0-0.6,0l-0.6,0c0,0-0.1,0-0.1,0v2.7l0.8,0.6h-2.8l0.8-0.6v-2.4c-0.3,0-0.6,0.1-0.8,0.4l-0.1-0.1
		c0.2-0.3,0.5-0.4,0.9-0.4v-0.2c-0.4,0-0.8,0.2-1.1,0.5l-0.1-0.1c0.2-0.5,0.6-0.8,1.1-0.9v-2.5L124.7,16.5z M131.6,16.8l-0.6,0.5
		v5.6l1,1h-3.1l-0.1-0.1h2.9l-0.8-0.8v-5.7l0.7-0.6L131.6,16.8z"/>
</g>
</svg>
