<?xml version="1.0" encoding="utf-8"?>
<!-- Generator: Adobe Illustrator 24.2.1, SVG Export Plug-In . SVG Version: 6.00 Build 0)  -->
<svg version="1.1" id="Capa_1" xmlns="http://www.w3.org/2000/svg" xmlns:xlink="http://www.w3.org/1999/xlink" x="0px" y="0px"
	 viewBox="0 0 48 48" style="enable-background:new 0 0 48 48;" xml:space="preserve">
<style type="text/css">
	.st0{fill-rule:evenodd;clip-rule:evenodd;fill:url(#SVGID_1_);}
	.st1{fill-rule:evenodd;clip-rule:evenodd;fill:url(#SVGID_2_);}
	.st2{fill-rule:evenodd;clip-rule:evenodd;fill:url(#SVGID_3_);}
	.st3{fill-rule:evenodd;clip-rule:evenodd;fill:url(#SVGID_4_);}
	.st4{fill:#F9B500;}
	.st5{fill:#05C7D6;}
	.st6{fill:none;stroke:#164988;stroke-width:0.5;stroke-miterlimit:10;}
	.st7{fill:#E63938;}
</style>
<g>
	<g>
		<linearGradient id="SVGID_1_" gradientUnits="userSpaceOnUse" x1="34.8534" y1="22.7403" x2="37.2458" y2="25.3589">
			<stop  offset="0" style="stop-color:#BEE3F7"/>
			<stop  offset="1" style="stop-color:#FFFFFF"/>
		</linearGradient>
		<polygon class="st0" points="25.5,24.06 36.11,13.5 46.67,24.12 36.06,34.68 		"/>
		<linearGradient id="SVGID_2_" gradientUnits="userSpaceOnUse" x1="10.6429" y1="22.6238" x2="13.0352" y2="25.2424">
			<stop  offset="0" style="stop-color:#BEE3F7"/>
			<stop  offset="1" style="stop-color:#FFFFFF"/>
		</linearGradient>
		<polygon class="st1" points="1.29,23.94 11.9,13.38 22.46,24 11.85,34.56 		"/>
		<linearGradient id="SVGID_3_" gradientUnits="userSpaceOnUse" x1="22.7525" y1="34.7757" x2="25.1449" y2="37.3943">
			<stop  offset="0" style="stop-color:#BEE3F7"/>
			<stop  offset="1" style="stop-color:#FFFFFF"/>
		</linearGradient>
		<polygon class="st2" points="13.4,36.09 24.01,25.53 34.57,36.15 23.96,46.71 		"/>
		<linearGradient id="SVGID_4_" gradientUnits="userSpaceOnUse" x1="22.7321" y1="10.5275" x2="25.1244" y2="13.146">
			<stop  offset="0" style="stop-color:#BEE3F7"/>
			<stop  offset="1" style="stop-color:#FFFFFF"/>
		</linearGradient>
		<polygon class="st3" points="13.37,11.85 23.99,1.29 34.55,11.91 23.93,22.47 		"/>
	</g>
	<g>
		<g>
			<path class="st4" d="M36.08,26.9v3.51c0,0-0.38-1.64-0.58-2.89c-1.23,1.65-2.8,2.08-2.8,2.08c0.91-1.26,1.02-2.14,1.05-2.82
				c-1.95,0.87-3.54,0.53-3.54,0.53c1.48-0.68,2.03-1.44,2.41-2.01c-2.14-0.15-3.56-1.22-3.56-1.22c1.62,0.09,2.71-0.26,3.35-0.58
				c-1.77-1.15-2.42-2.75-2.42-2.75c1.37,0.86,2.51,1.07,3.23,1.1c-0.91-1.81-0.63-3.49-0.63-3.49c0.71,1.36,1.57,2.07,2.18,2.44
				c0.12-1.99,1.32-3.08,1.32-3.08v3.52c-1.65,0.02-2.97,1.27-2.97,2.82C33.11,25.62,34.44,26.87,36.08,26.9L36.08,26.9z"/>
			<path class="st4" d="M36.09,21.63c-1.47,0.02-2.66,1.11-2.66,2.45c0,1.34,1.19,2.43,2.66,2.45V21.63z"/>
		</g>
		<path class="st5" d="M36.63,23.4v-0.36v-5.22c0.02-0.01,0.05-0.02,0.08-0.02c0.11,0,0.2,0.09,0.2,0.2v1.24l0.52-0.52
			c0.08-0.08,0.2-0.08,0.28,0c0.08,0.08,0.08,0.2,0,0.28l-0.8,0.8v1.24l1.34-1.34c0.08-0.08,0.2-0.08,0.28,0
			c0.08,0.08,0.08,0.2,0,0.28l-1.62,1.62v1.5c0.18,0.08,0.34,0.2,0.46,0.36l1.32-0.76l0.62-2.31c0.03-0.11,0.14-0.17,0.24-0.14
			c0.11,0.03,0.17,0.14,0.14,0.24l-0.52,1.92l1.06-0.61l0.3-1.13c0.03-0.11,0.14-0.17,0.24-0.14c0.11,0.03,0.17,0.14,0.14,0.24
			l-0.2,0.74l1.12-0.64c0.1-0.05,0.22-0.02,0.27,0.07c0.05,0.1,0.02,0.22-0.07,0.27l-1.07,0.62l0.71,0.19
			c0.11,0.03,0.17,0.14,0.14,0.24c-0.02,0.09-0.11,0.15-0.19,0.15c-0.02,0-0.03,0-0.05-0.01l-1.09-0.29l-1.07,0.62l1.83,0.49
			c0.11,0.03,0.17,0.14,0.14,0.24c-0.02,0.09-0.1,0.15-0.19,0.15c-0.02,0-0.04,0-0.05-0.01l-2.21-0.59l-1.39,0.8
			c0.02,0.08,0.03,0.16,0.03,0.24c0,0.1-0.01,0.19-0.04,0.28l1.34,0.77l2.31-0.62c0.11-0.03,0.21,0.04,0.24,0.14
			c0.03,0.11-0.04,0.22-0.14,0.24l-1.92,0.52l1.06,0.61l1.13-0.3c0.11-0.03,0.21,0.04,0.24,0.14c0.03,0.11-0.04,0.22-0.14,0.24
			l-0.75,0.2L42,26.95c0.1,0.05,0.13,0.18,0.07,0.27c-0.04,0.06-0.1,0.1-0.17,0.1c-0.03,0-0.07-0.01-0.1-0.03l-1.07-0.62l0.19,0.71
			c0.03,0.11-0.04,0.21-0.14,0.24c-0.02,0-0.04,0.01-0.05,0.01c-0.09,0-0.17-0.06-0.19-0.15l-0.29-1.09l-1.07-0.62l0.49,1.83
			c0.03,0.11-0.04,0.21-0.14,0.24c-0.02,0-0.04,0.01-0.05,0.01c-0.09,0-0.17-0.06-0.19-0.15l-0.59-2.22l-1.35-0.78
			c-0.11,0.14-0.26,0.26-0.43,0.33v1.51l1.62,1.62c0.08,0.08,0.08,0.2,0,0.28c-0.04,0.04-0.09,0.06-0.14,0.06s-0.1-0.02-0.14-0.06
			l-1.34-1.34v1.22l0.76,0.76c0.08,0.08,0.08,0.2,0,0.28c-0.08,0.08-0.2,0.08-0.28,0l-0.48-0.48v1.24c0,0.11-0.09,0.2-0.2,0.2
			c-0.03,0-0.05-0.01-0.08-0.02V25.1v-0.37V24.7c0.3-0.05,0.53-0.32,0.53-0.63s-0.23-0.58-0.53-0.63V23.4z M37.49,22.68
			c0.03,0.02,0.06,0.03,0.1,0.03s0.07-0.01,0.1-0.03l0.51-0.3c0.05-0.03,0.08-0.07,0.09-0.12l0.25-0.95
			c0.02-0.09-0.02-0.18-0.09-0.22c-0.08-0.04-0.17-0.03-0.24,0.03l-0.75,0.71c-0.04,0.04-0.06,0.09-0.06,0.14l-0.01,0.54
			C37.39,22.58,37.42,22.65,37.49,22.68L37.49,22.68z M39.99,23.92L39,23.62c-0.05-0.02-0.11-0.01-0.15,0.02l-0.47,0.26
			c-0.06,0.04-0.1,0.1-0.1,0.17c0,0.07,0.04,0.14,0.1,0.17l0.52,0.29c0.03,0.02,0.06,0.03,0.1,0.03c0.02,0,0.04,0,0.05-0.01
			l0.94-0.26c0.09-0.02,0.14-0.1,0.15-0.19C40.13,24.02,40.07,23.94,39.99,23.92L39.99,23.92z M38.22,25.85
			c-0.01-0.05-0.04-0.1-0.09-0.12l-0.47-0.28c-0.06-0.04-0.14-0.04-0.2,0c-0.06,0.04-0.1,0.1-0.1,0.17l0.01,0.59
			c0,0.05,0.02,0.1,0.06,0.14l0.7,0.69c0.04,0.04,0.09,0.06,0.14,0.06c0.03,0,0.07-0.01,0.1-0.03c0.08-0.04,0.12-0.13,0.1-0.22
			L38.22,25.85z"/>
	</g>
	<g>
		
			<rect x="16.5" y="4.39" transform="matrix(0.7061 -0.7081 0.7081 0.7061 -1.3602 20.4746)" class="st6" width="14.98" height="14.98"/>
		
			<rect x="4.39" y="16.48" transform="matrix(0.7091 -0.7051 0.7051 0.7091 -13.4484 15.3474)" class="st6" width="14.98" height="14.98"/>
		
			<rect x="16.48" y="28.64" transform="matrix(0.7095 -0.7047 0.7047 0.7095 -18.4957 27.3834)" class="st6" width="14.97" height="14.98"/>
		
			<rect x="28.64" y="16.55" transform="matrix(0.7091 -0.7051 0.7051 0.7091 -6.4384 32.4657)" class="st6" width="14.98" height="14.98"/>
	</g>
	<path class="st7" d="M27.3,31.15c-0.26,0.35-0.47,0.72-0.62,1.1c-0.31,0.75-0.51,1.21-0.61,1.38l-0.04,0.04
		c-0.02-0.05-0.04-0.1-0.04-0.13c-0.14-0.45-0.26-0.76-0.35-0.93c-0.09-0.18-0.23-0.34-0.4-0.5c-0.46-0.4-0.98-0.6-1.56-0.6
		c-0.54,0-0.98,0.15-1.34,0.45c-0.36,0.3-0.53,0.67-0.53,1.12c0,0.84,0.63,1.41,1.9,1.72l1.27,0.31c1.81,0.44,2.71,1.39,2.71,2.86
		c0,0.82-0.31,1.51-0.93,2.07c-0.62,0.55-1.38,0.84-2.3,0.84c-0.57,0-1.21-0.09-1.91-0.26l-0.88-0.22
		c-0.36-0.08-0.65-0.12-0.88-0.12c-0.31,0-0.62,0.09-0.95,0.29l-0.06-0.11c0.62-0.93,1.06-1.83,1.31-2.67l0.13,0.04
		c0.11,0.78,0.42,1.39,0.95,1.83c0.53,0.44,1.21,0.65,2.06,0.65c0.67,0,1.21-0.16,1.6-0.47c0.39-0.31,0.59-0.73,0.59-1.25
		c0-0.61-0.27-1.11-0.83-1.5c-0.4-0.28-1.21-0.54-2.43-0.78c-0.95-0.18-1.63-0.49-2.06-0.92c-0.42-0.43-0.64-1.03-0.64-1.8
		c0-0.79,0.28-1.43,0.85-1.92c0.57-0.49,1.31-0.74,2.22-0.74c0.58,0,1.27,0.11,2.05,0.31c0.36,0.1,0.64,0.15,0.81,0.15
		c0.25,0,0.52-0.09,0.81-0.26L27.3,31.15z M27.77,31.47l-0.07,0.11c-0.2,0.35-0.38,0.68-0.53,1c-0.35,0.74-0.55,1.15-0.59,1.23
		l-0.04,0.05l-0.18-0.07l0.03-0.07c0.14-0.33,0.35-0.76,0.63-1.29l0.51-0.99l0.04-0.06L27.77,31.47z M25.57,32.97
		c-0.55-0.59-1.15-0.88-1.78-0.88c-0.38,0-0.7,0.11-0.95,0.33c-0.25,0.22-0.38,0.5-0.38,0.84c0,0.37,0.26,0.75,0.77,1.14l0.06,0.04
		l-0.04,0.06c-0.66-0.29-1-0.72-1-1.29c0-0.39,0.14-0.71,0.42-0.95c0.28-0.24,0.65-0.37,1.1-0.37c0.43,0,0.81,0.09,1.13,0.27
		c0.33,0.18,0.56,0.44,0.71,0.77L25.57,32.97z M27.3,35.95c0.68,0.52,1.02,1.22,1.02,2.12c0,0.96-0.37,1.77-1.11,2.43
		c-0.74,0.66-1.64,1-2.7,1c-0.54,0-1.03-0.06-1.47-0.17l-1.2-0.3c-0.28-0.07-0.58-0.11-0.9-0.11c-0.29,0-0.55,0.06-0.79,0.18
		l-0.09-0.22c0.26-0.13,0.53-0.19,0.8-0.19c0.3,0,0.64,0.05,1.03,0.14l1.16,0.28c0.46,0.11,0.95,0.17,1.46,0.17
		c1,0,1.86-0.32,2.56-0.96c0.7-0.64,1.06-1.41,1.06-2.32c0-0.77-0.27-1.44-0.82-2.01V35.95z M21.95,38.12
		c0.18,0.9,0.68,1.54,1.49,1.91v0.06c-0.93-0.27-1.5-0.92-1.69-1.94L21.95,38.12z M21.02,35.68l0.26,0.14
		c0.16,0.3,0.65,0.54,1.45,0.73l1.21,0.3c0.82,0.2,1.36,0.38,1.64,0.53c0.27,0.15,0.47,0.37,0.58,0.67l-0.05,0.03
		c-0.22-0.26-0.47-0.45-0.73-0.57c-0.26-0.12-0.77-0.27-1.51-0.44c-1.08-0.25-1.81-0.47-2.18-0.65C21.3,36.25,21.08,36,21.02,35.68
		L21.02,35.68z"/>
	<path class="st7" d="M27.74,7.3l-0.09,0.14c-0.46,0.76-0.86,1.52-1.2,2.28l-0.07,0.17l-0.1-0.05c-0.12-0.73-0.39-1.32-0.83-1.75
		c-0.43-0.43-0.95-0.65-1.57-0.65c-0.65,0-1.2,0.27-1.63,0.81c-0.55,0.67-0.82,1.8-0.82,3.4c0,1.37,0.25,2.45,0.76,3.23
		c0.51,0.78,1.21,1.17,2.11,1.17c0.72,0,1.29-0.23,1.72-0.68c0.43-0.45,0.69-1.1,0.77-1.94c0.02-0.2,0.11-0.31,0.26-0.31
		c0.2,0,0.3,0.16,0.3,0.47c0,0.47-0.11,0.96-0.34,1.46c-0.48,1.06-1.46,1.6-2.96,1.6c-1.33,0-2.39-0.44-3.18-1.33
		c-0.78-0.89-1.18-2.08-1.18-3.59c0-1.39,0.41-2.56,1.22-3.5c0.82-0.94,1.83-1.41,3.04-1.41c0.57,0,1.23,0.13,1.96,0.4
		c0.39,0.14,0.7,0.21,0.95,0.21c0.27,0,0.52-0.07,0.73-0.21L27.74,7.3z M25.51,8.56c-0.46-0.36-0.91-0.53-1.32-0.53
		c-1.32,0-1.98,1.2-1.98,3.59c0,1.09,0.15,2,0.46,2.72c0.31,0.73,0.74,1.19,1.29,1.41v0.07c-0.6-0.12-1.08-0.56-1.44-1.32
		c-0.36-0.76-0.54-1.73-0.54-2.9c0-2.51,0.73-3.76,2.18-3.76c0.49,0,0.94,0.21,1.36,0.62V8.56z M28.02,13.56
		c-0.08,1.2-0.44,2.12-1.07,2.75c-0.63,0.63-1.51,0.94-2.63,0.94c-0.86,0-1.65-0.25-2.39-0.75v-0.06c0.66,0.41,1.45,0.61,2.38,0.61
		c1.01,0,1.84-0.31,2.48-0.92c0.31-0.3,0.54-0.64,0.69-1.01c0.15-0.37,0.25-0.87,0.3-1.48l0.02-0.17L28.02,13.56z M28.3,7.66
		L28.22,7.8c-0.56,0.9-1,1.72-1.34,2.47l-0.21-0.09l0.08-0.18c0.26-0.51,0.48-0.93,0.68-1.27l0.61-1.03l0.08-0.13L28.3,7.66z"/>
	<path class="st7" d="M7.37,19.33h3.47l-1,0.9v2.91c0.11,0.02,0.24,0.03,0.39,0.04v-2.88l0.81-0.73l0.15,0.12l-0.76,0.69v2.81
		l0.25,0.02c0.38,0.04,0.74,0.05,1.09,0.05c0.51,0,0.95-0.03,1.32-0.07v-3.1l-0.9-0.76h3.41l-1.02,0.9v7.02l0.89,0.73h-3.4
		l1.01-0.79v-2.85c-0.41,0.09-0.84,0.14-1.28,0.14c-0.41,0-0.84-0.02-1.28-0.07l-0.1-0.01v2.85l1.22,1.28H7.83l-0.19-0.18h3.6
		l-1.01-1v-3.1l0.21,0.01c0.65,0.05,1.12,0.08,1.41,0.08c0.47,0,0.88-0.06,1.23-0.18V23.9c-0.46,0.06-1,0.1-1.61,0.1
		c-0.33,0-0.57-0.01-0.72-0.02l-0.75-0.06c-0.03,0-0.09-0.01-0.17-0.01v3.34l0.94,0.73H7.37l0.99-0.79v-2.94
		c-0.41,0-0.74,0.15-0.99,0.44l-0.15-0.07c0.28-0.33,0.67-0.51,1.14-0.55v-0.25c-0.55,0-0.99,0.19-1.31,0.57l-0.11-0.07
		c0.29-0.65,0.76-1.03,1.42-1.15v-3.03L7.37,19.33z M15.91,19.7l-0.75,0.67v6.87l1.22,1.28h-3.82l-0.18-0.18h3.59l-0.98-1.02v-7.02
		l0.82-0.74L15.91,19.7z"/>
</g>
</svg>
